#
# generated by kHED
#
mtllib Model.mtl
# vertices:
v 1.160902 26.868347 -9.716700
v 0.824905 31.254608 -11.317368
v -2.557400 31.495338 -7.749573
v -6.820030 27.639641 -0.274332
v 1.885820 24.291901 -0.599974
v 10.159644 28.541145 -1.368752
v 0.870857 32.481918 -9.595730
v -4.496683 33.564529 -1.232495
v -3.410339 36.709221 -6.219349
v -3.605349 38.357391 -0.908307
v 5.079603 37.159973 -6.766555
v 0.715557 34.451889 -10.383194
v 10.414903 31.679550 -1.803273
v 4.368879 31.862625 -8.196314
v 0.716442 37.996735 -7.451254
v 0.930462 40.338760 -2.207840
v -7.458572 30.730843 -0.651215
v 7.120840 34.180939 -1.981474
v 5.778114 38.855774 -1.513165
v 1.227089 39.693428 1.864491
v 1.789740 34.118195 6.000000
v 2.052753 28.476807 5.432286
v -4.042631 1.073952 3.507198
v 0.310089 1.328178 -0.907553
v -3.045959 1.623791 -4.495433
v -6.586414 1.068237 -1.846574
v -0.579370 11.863945 3.186306
v 2.414949 9.943260 -0.163739
v 0.494148 6.259995 -0.693955
v -5.045206 8.432884 0.661975
v -2.833212 12.452766 0.151064
v -2.462994 8.366192 -4.009789
v -1.230690 11.829758 -3.093148
v 7.141678 0.846584 3.475414
v 6.412243 1.568558 -4.543061
v 2.950314 1.860302 -1.920006
v 10.064196 0.836861 -1.806900
v 3.340925 6.916222 -0.554255
v 5.470243 12.074951 3.206182
v 7.473154 12.812447 0.297039
v 9.165401 7.940845 0.673475
v 6.694088 8.300091 -4.000247
v 6.163748 12.087662 -3.069594
v 4.850643 37.119598 -3.374350
v 6.222428 36.255188 -0.254089
v 6.582571 41.167000 -4.980975
v 10.515092 37.894905 1.719656
v 10.176430 42.000000 -0.975211
v 4.269217 38.827850 -0.518314
v -2.745564 36.716507 -2.884788
v -4.879108 40.656868 -4.259797
v -3.608047 35.733170 0.379153
v -7.994049 41.208725 0.172416
v -7.617538 36.890076 2.891530
v -1.986736 38.495537 -0.115234
v -3.232889 23.694633 -3.635702
v 2.402348 23.248749 -5.800819
v 1.896088 27.502228 0.015462
v -3.744585 23.683891 1.720405
v 7.470459 24.135742 -2.612305
v -4.761229 16.640610 -3.786023
v 2.219347 16.204971 -7.125416
v 9.130844 17.125145 -3.740952
v 6.937218 24.124176 2.967478
v 9.130482 16.465279 3.434833
v -2.833212 12.452766 0.151064
v 2.377777 11.502457 -5.547325
v 1.460114 24.349289 3.570667
v 2.208637 15.330627 5.655841
v -4.529551 15.764503 3.390360
v -19.622406 20.356216 1.147346
v -14.792572 22.260132 3.204479
v -18.545959 20.054230 -3.661896
v -12.779613 21.454910 -4.805731
v -9.639198 21.556755 -2.262917
v -10.720013 22.786194 2.443327
v -15.795422 25.173759 -1.268403
v -5.347389 25.281158 1.092162
v -6.771549 22.694054 3.416739
v -9.839180 24.816559 0.107404
v -5.297356 22.363869 -1.410625
v -0.281723 23.732468 1.034348
v -0.943567 21.646225 -1.851303
v -0.676125 24.846390 -2.049675
v 0.452501 23.507660 -1.601719
v 23.825565 19.868530 -3.600719
v 20.237244 22.044556 2.265570
v 24.000000 20.359711 1.309190
v 14.484682 21.116959 -2.764970
v 17.636940 21.285851 -5.580907
v 15.887154 22.398483 1.879584
v 20.723043 25.233589 -2.104463
v 12.094057 21.470474 2.832659
v 10.581501 24.903519 1.362592
v 14.918877 24.416016 -0.333153
v 10.313206 22.402969 -1.808603
v 5.380352 22.008583 1.701908
v 5.554451 21.910286 -1.914551
v 5.272081 25.043091 -0.219539
v 4.031208 23.408058 -0.457993

# texture coords:
vt 0.698730 0.522461 0.0
vt 0.500000 0.501953 0.0
vt 0.499023 0.163086 0.0
vt 0.698730 0.522461 0.0
vt 0.499023 0.163086 0.0
vt 0.946289 0.175781 0.0
vt 0.062012 0.205078 0.0
vt 0.506348 -0.087891 0.0
vt 0.499023 0.163086 0.0
vt 0.698730 0.522461 0.0
vt 0.500977 0.597656 0.0
vt 0.500000 0.501953 0.0
vt 0.751953 0.889648 0.0
vt 0.732422 0.820313 0.0
vt 0.811523 0.643555 0.0
vt 0.500488 0.695313 0.0
vt 0.270996 0.829102 0.0
vt 0.500977 0.597656 0.0
vt 0.316895 0.534180 0.0
vt 0.022461 0.478516 0.0
vt 0.062012 0.205078 0.0
vt 0.732422 0.820313 0.0
vt 0.501953 1.003906 0.0
vt 0.501953 0.880859 0.0
vt 0.501953 1.003906 0.0
vt 0.732422 0.820313 0.0
vt 0.751953 0.889648 0.0
vt 0.698730 0.522461 0.0
vt 0.981445 0.443359 0.0
vt 0.811523 0.643555 0.0
vt 0.811523 0.643555 0.0
vt 0.732422 0.820313 0.0
vt 0.698730 0.522461 0.0
vt 0.251465 0.898438 0.0
vt 0.190430 0.660156 0.0
vt 0.270996 0.829102 0.0
vt 0.500977 0.597656 0.0
vt 0.270996 0.829102 0.0
vt 0.316895 0.534180 0.0
vt 0.501953 0.880859 0.0
vt 0.501953 1.003906 0.0
vt 0.270996 0.829102 0.0
vt 0.500000 0.501953 0.0
vt 0.500977 0.597656 0.0
vt 0.316895 0.534180 0.0
vt 0.316895 0.534180 0.0
vt 0.190430 0.660156 0.0
vt 0.022461 0.478516 0.0
vt 0.501953 1.003906 0.0
vt 0.251465 0.898438 0.0
vt 0.270996 0.829102 0.0
vt 0.190430 0.660156 0.0
vt 0.316895 0.534180 0.0
vt 0.270996 0.829102 0.0
vt 0.732422 0.820313 0.0
vt 0.500977 0.597656 0.0
vt 0.698730 0.522461 0.0
vt 0.501953 0.880859 0.0
vt 0.270996 0.829102 0.0
vt 0.500488 0.695313 0.0
vt 0.732422 0.820313 0.0
vt 0.501953 0.880859 0.0
vt 0.500488 0.695313 0.0
vt 0.946289 0.175781 0.0
vt 0.499023 0.163086 0.0
vt 0.506348 -0.087891 0.0
vt 0.500488 0.695313 0.0
vt 0.500977 0.597656 0.0
vt 0.732422 0.820313 0.0
vt 0.316895 0.534180 0.0
vt 0.062012 0.205078 0.0
vt 0.499023 0.163086 0.0
vt 0.946289 0.175781 0.0
vt 0.981445 0.443359 0.0
vt 0.698730 0.522461 0.0
vt 0.316895 0.534180 0.0
vt 0.499023 0.163086 0.0
vt 0.500000 0.501953 0.0
vt 0.349121 0.597656 0.0
vt 0.084961 0.341797 0.0
vt 0.322266 -0.007813 0.0
vt 0.305664 -0.020508 0.0
vt 0.108887 0.380859 0.0
vt 0.348145 0.621094 0.0
vt 0.038574 0.420898 0.0
vt 0.336426 0.624023 0.0
vt 0.392090 -0.035156 0.0
vt 0.338867 0.591797 0.0
vt 0.092285 0.369141 0.0
vt 0.298340 0.015625 0.0
vt 0.261719 0.652344 0.0
vt 0.378906 0.170898 0.0
vt 0.427734 0.419922 0.0
vt 0.088379 0.363281 0.0
vt 0.189453 0.046875 0.0
vt 0.378906 0.170898 0.0
vt 0.261719 0.652344 0.0
vt 0.088379 0.363281 0.0
vt 0.378906 0.170898 0.0
vt 0.392578 0.194336 0.0
vt 0.233887 0.638672 0.0
vt 0.416504 0.426758 0.0
vt 0.392578 0.194336 0.0
vt 0.209473 0.034180 0.0
vt 0.089844 0.353516 0.0
vt 0.233887 0.638672 0.0
vt 0.392578 0.194336 0.0
vt 0.089844 0.353516 0.0
vt 0.293945 0.797852 0.0
vt 0.545410 0.560547 0.0
vt 0.402344 0.725586 0.0
vt 0.194824 0.510742 0.0
vt 0.545410 0.560547 0.0
vt 0.259277 0.645508 0.0
vt 0.364258 0.465820 0.0
vt 0.545410 0.560547 0.0
vt 0.194824 0.510742 0.0
vt 0.545410 0.560547 0.0
vt 0.293945 0.797852 0.0
vt 0.259277 0.645508 0.0
vt 0.402344 0.725586 0.0
vt 0.545410 0.560547 0.0
vt 0.293945 0.797852 0.0
vt 0.259277 0.645508 0.0
vt 0.545410 0.560547 0.0
vt 0.194824 0.510742 0.0
vt 0.194824 0.510742 0.0
vt 0.545410 0.560547 0.0
vt 0.364258 0.465820 0.0
vt 0.259277 0.645508 0.0
vt 0.293945 0.797852 0.0
vt 0.545410 0.560547 0.0
vt 0.751953 0.889648 0.0
vt 0.501953 0.943359 0.0
vt 0.501953 1.003906 0.0
vt 0.811523 0.643555 0.0
vt 0.981445 0.443359 0.0
vt 0.500977 0.645508 0.0
vt 0.946289 0.175781 0.0
vt 0.500977 0.645508 0.0
vt 0.981445 0.443359 0.0
vt 0.811523 0.643555 0.0
vt 0.501953 0.943359 0.0
vt 0.751953 0.889648 0.0
vt 0.500977 0.645508 0.0
vt 0.501953 0.943359 0.0
vt 0.811523 0.643555 0.0
vt 0.500977 0.645508 0.0
vt 0.946289 0.175781 0.0
vt 0.503906 0.205078 0.0
vt 0.506348 -0.087891 0.0
vt 0.503906 0.205078 0.0
vt 0.946289 0.175781 0.0
vt 0.251465 0.898438 0.0
vt 0.501953 1.003906 0.0
vt 0.501953 0.943359 0.0
vt 0.062012 0.205078 0.0
vt 0.022461 0.478516 0.0
vt 0.500977 0.645508 0.0
vt 0.190430 0.660156 0.0
vt 0.500977 0.645508 0.0
vt 0.022461 0.478516 0.0
vt 0.500977 0.645508 0.0
vt 0.190430 0.660156 0.0
vt 0.501953 0.943359 0.0
vt 0.190430 0.660156 0.0
vt 0.251465 0.898438 0.0
vt 0.501953 0.943359 0.0
vt 0.062012 0.205078 0.0
vt 0.503906 0.205078 0.0
vt 0.506348 -0.087891 0.0
vt 0.500977 0.645508 0.0
vt 0.503906 0.205078 0.0
vt 0.062012 0.205078 0.0
vt 0.157227 0.284180 0.0
vt 0.202637 0.621094 0.0
vt 0.184570 0.298828 0.0
vt 0.280762 0.302734 0.0
vt 0.349121 0.595703 0.0
vt 0.157227 0.284180 0.0
vt 0.157227 0.284180 0.0
vt 0.275391 0.094727 0.0
vt 0.280762 0.302734 0.0
vt 0.202637 0.621094 0.0
vt 0.157227 0.284180 0.0
vt 0.349121 0.595703 0.0
vt 0.225098 0.172852 0.0
vt 0.206543 0.102539 0.0
vt 0.330566 0.351563 0.0
vt 0.225098 0.172852 0.0
vt 0.401855 0.698242 0.0
vt 0.141113 0.598633 0.0
vt 0.330566 0.351563 0.0
vt 0.401855 0.698242 0.0
vt 0.225098 0.172852 0.0
vt 0.141113 0.598633 0.0
vt 0.194336 0.204102 0.0
vt 0.225098 0.172852 0.0
vt 0.396484 0.506348 0.0
vt 0.404297 0.761719 0.0
vt 0.813477 0.811035 0.0
vt 0.813477 0.811035 0.0
vt 0.513672 0.867676 0.0
vt 0.500000 0.605957 0.0
vt 0.500000 0.605957 0.0
vt 0.513672 0.867676 0.0
vt 0.049805 0.589844 0.0
vt 0.513672 0.867676 0.0
vt 0.166992 0.840332 0.0
vt 0.049805 0.589844 0.0
vt 0.166992 0.840332 0.0
vt 0.404297 0.761719 0.0
vt 0.396484 0.506348 0.0
vt 0.396484 0.506348 0.0
vt 0.534180 0.170410 0.0
vt 0.178711 0.358887 0.0
vt 0.396484 0.506348 0.0
vt 0.500000 0.605957 0.0
vt 0.534180 0.170410 0.0
vt 0.500000 0.605957 0.0
vt 0.049805 0.589844 0.0
vt 0.213867 0.359375 0.0
vt 0.049805 0.589844 0.0
vt 0.212891 0.422852 0.0
vt 0.213867 0.359375 0.0
vt 0.166992 0.840332 0.0
vt 0.396484 0.506348 0.0
vt 0.049805 0.589844 0.0
vt 0.500000 0.605957 0.0
vt 0.213867 0.359375 0.0
vt 0.534180 0.170410 0.0
vt 0.049805 0.589844 0.0
vt 0.396484 0.506348 0.0
vt 0.212891 0.422852 0.0
vt 0.396484 0.506348 0.0
vt 0.813477 0.811035 0.0
vt 0.500000 0.605957 0.0
vt 0.396484 0.506348 0.0
vt 0.178711 0.358887 0.0
vt 0.212891 0.422852 0.0
vt 0.544922 0.757324 0.0
vt 0.783203 0.699219 0.0
vt 0.762695 0.421875 0.0
vt 0.199219 0.502930 0.0
vt 0.329102 0.793457 0.0
vt 0.544922 0.757324 0.0
vt 0.434570 0.479004 0.0
vt 0.329102 0.793457 0.0
vt 0.199219 0.502930 0.0
vt 0.434570 0.479004 0.0
vt 0.476563 0.756836 0.0
vt 0.329102 0.793457 0.0
vt 0.762695 0.421875 0.0
vt 0.783203 0.699219 0.0
vt 0.476563 0.756836 0.0
vt 0.564453 0.370605 0.0
vt 0.354492 0.116699 0.0
vt 0.762695 0.421875 0.0
vt 0.762695 0.421875 0.0
vt 0.354492 0.116699 0.0
vt 0.199219 0.502930 0.0
vt 0.199219 0.502930 0.0
vt 0.138672 0.143066 0.0
vt 0.434570 0.479004 0.0
vt 0.138672 0.143066 0.0
vt 0.253906 0.346680 0.0
vt 0.434570 0.479004 0.0
vt 0.434570 0.479004 0.0
vt 0.762695 0.421875 0.0
vt 0.476563 0.756836 0.0
vt 0.354492 0.116699 0.0
vt 0.138672 0.143066 0.0
vt 0.199219 0.502930 0.0
vt 0.434570 0.479004 0.0
vt 0.253906 0.346680 0.0
vt 0.762695 0.421875 0.0
vt 0.544922 0.757324 0.0
vt 0.762695 0.421875 0.0
vt 0.199219 0.502930 0.0
vt 0.253906 0.346680 0.0
vt 0.564453 0.370605 0.0
vt 0.762695 0.421875 0.0
vt 0.509766 1.032715 0.0
vt 0.513672 0.867676 0.0
vt 0.099609 0.789063 0.0
vt 0.509766 1.032715 0.0
vt 0.099609 0.789063 0.0
vt 0.096680 0.789063 0.0
vt 0.513672 0.867676 0.0
vt 0.509766 1.032715 0.0
vt 0.933594 0.768066 0.0
vt -0.011719 0.355469 0.0
vt 0.099609 0.789063 0.0
vt 0.493164 0.267578 0.0
vt 0.099609 0.789063 0.0
vt 0.513672 0.867676 0.0
vt 0.493164 0.267578 0.0
vt 0.513672 0.867676 0.0
vt 0.933594 0.768066 0.0
vt 0.493164 0.267578 0.0
vt 0.933594 0.768066 0.0
vt 0.750977 0.397461 0.0
vt 0.493164 0.267578 0.0
vt -0.011719 0.355469 0.0
vt 0.493164 0.267578 0.0
vt 0.259766 0.080078 0.0
vt 0.259766 0.080078 0.0
vt 0.693359 0.071777 0.0
vt 0.472656 -0.048340 0.0
vt 0.750977 0.397461 0.0
vt 0.693359 0.071777 0.0
vt 0.493164 0.267578 0.0
vt 0.259766 0.080078 0.0
vt 0.493164 0.267578 0.0
vt 0.693359 0.071777 0.0
vt 0.750977 0.397461 0.0
vt 1.000000 0.355957 0.0
vt 0.857422 0.117676 0.0
vt 0.857422 0.117676 0.0
vt 0.693359 0.071777 0.0
vt 0.750977 0.397461 0.0
vt 0.750977 0.397461 0.0
vt 0.933594 0.768066 0.0
vt 1.000000 0.355957 0.0
vt 0.286133 0.805664 0.0
vt 0.951172 0.802734 0.0
vt 0.250977 0.653320 0.0
vt 0.283203 0.345215 0.0
vt 0.768555 0.323242 0.0
vt 0.356445 0.473633 0.0
vt 0.356445 0.473633 0.0
vt 0.768555 0.323242 0.0
vt 0.705078 0.525879 0.0
vt 0.537109 0.568359 0.0
vt 0.356445 0.473633 0.0
vt 0.951172 0.802734 0.0
vt 0.537109 0.568359 0.0
vt 0.951172 0.802734 0.0
vt 0.394531 0.733398 0.0
vt 0.286133 0.805664 0.0
vt 0.394531 0.733398 0.0
vt 0.951172 0.802734 0.0
vt 0.951172 0.802734 0.0
vt 0.356445 0.473633 0.0
vt 0.705078 0.525879 0.0
vt 0.951172 0.802734 0.0
vt 0.705078 0.525879 0.0
vt 0.187500 0.518555 0.0
vt 0.951172 0.802734 0.0
vt 0.187500 0.518555 0.0
vt 0.250977 0.653320 0.0
vt 0.187500 0.518555 0.0
vt 0.705078 0.525879 0.0
vt 0.331055 0.295898 0.0
vt 0.705078 0.525879 0.0
vt 0.768555 0.323242 0.0
vt 0.331055 0.295898 0.0
vt 0.187500 0.518555 0.0
vt 0.331055 0.295898 0.0
vt 0.283203 0.345215 0.0
vt 0.283203 0.345215 0.0
vt 0.331055 0.295898 0.0
vt 0.400391 0.068848 0.0
vt 0.331055 0.295898 0.0
vt 0.393555 0.063965 0.0
vt 0.400391 0.068848 0.0
vt 0.283203 0.345215 0.0
vt 0.400391 0.068848 0.0
vt 0.768555 0.323242 0.0
vt 0.400391 0.068848 0.0
vt 0.742188 0.068848 0.0
vt 0.768555 0.323242 0.0
vt 0.742188 0.068848 0.0
vt 0.393555 0.063965 0.0
vt 0.768555 0.323242 0.0
vt 0.768555 0.323242 0.0
vt 0.393555 0.063965 0.0
vt 0.331055 0.295898 0.0
vt 0.459961 -0.009766 0.0
vt 0.400391 0.068848 0.0
vt 0.393555 0.063965 0.0
vt 0.459961 -0.009766 0.0
vt 0.742188 0.068848 0.0
vt 0.400391 0.068848 0.0
vt 0.187500 0.518555 0.0
vt 0.283203 0.345215 0.0
vt 0.356445 0.473633 0.0
vt 0.742188 0.068848 0.0
vt 0.459961 -0.009766 0.0
vt 0.393555 0.063965 0.0
vt 0.250977 0.653320 0.0
vt 0.951172 0.802734 0.0
vt 0.286133 0.805664 0.0
vt 0.356445 0.473633 0.0
vt 0.768555 0.323242 0.0
vt 0.283203 0.345215 0.0
vt 0.705078 0.525879 0.0
vt 0.768555 0.323242 0.0
vt 0.356445 0.473633 0.0
vt 0.951172 0.802734 0.0
vt 0.356445 0.473633 0.0
vt 0.537109 0.568359 0.0
vt 0.394531 0.733398 0.0
vt 0.951172 0.802734 0.0
vt 0.537109 0.568359 0.0
vt 0.951172 0.802734 0.0
vt 0.394531 0.733398 0.0
vt 0.286133 0.805664 0.0
vt 0.705078 0.525879 0.0
vt 0.356445 0.473633 0.0
vt 0.951172 0.802734 0.0
vt 0.250977 0.653320 0.0
vt 0.187500 0.518555 0.0
vt 0.705078 0.525879 0.0
vt 0.250977 0.653320 0.0
vt 0.705078 0.525879 0.0
vt 0.951172 0.802734 0.0
vt 0.331055 0.295898 0.0
vt 0.705078 0.525879 0.0
vt 0.187500 0.518555 0.0
vt 0.331055 0.295898 0.0
vt 0.768555 0.323242 0.0
vt 0.705078 0.525879 0.0
vt 0.283203 0.345215 0.0
vt 0.331055 0.295898 0.0
vt 0.187500 0.518555 0.0
vt 0.400391 0.068848 0.0
vt 0.331055 0.295898 0.0
vt 0.283203 0.345215 0.0
vt 0.400391 0.068848 0.0
vt 0.393555 0.063965 0.0
vt 0.331055 0.295898 0.0
vt 0.768555 0.323242 0.0
vt 0.400391 0.068848 0.0
vt 0.283203 0.345215 0.0
vt 0.768555 0.323242 0.0
vt 0.742188 0.068848 0.0
vt 0.400391 0.068848 0.0
vt 0.768555 0.323242 0.0
vt 0.393555 0.063965 0.0
vt 0.742188 0.068848 0.0
vt 0.331055 0.295898 0.0
vt 0.393555 0.063965 0.0
vt 0.768555 0.323242 0.0
vt 0.393555 0.063965 0.0
vt 0.400391 0.068848 0.0
vt 0.459961 -0.009766 0.0
vt 0.400391 0.068848 0.0
vt 0.742188 0.068848 0.0
vt 0.459961 -0.009766 0.0
vt 0.356445 0.473633 0.0
vt 0.283203 0.345215 0.0
vt 0.187500 0.518555 0.0
vt 0.393555 0.063965 0.0
vt 0.459961 -0.009766 0.0
vt 0.742188 0.068848 0.0
vt 0.509766 1.032715 0.0
vt 0.507813 0.749023 0.0
vt 0.925781 0.768555 0.0
vt 0.509766 1.032715 0.0
vt 0.925781 0.768555 0.0
vt 0.933594 0.768066 0.0
vt 0.509766 1.032715 0.0
vt 0.096680 0.789063 0.0
vt 0.507813 0.749023 0.0
vt 0.933594 0.768066 0.0
vt 0.925781 0.768555 0.0
vt 1.000000 0.355957 0.0
vt 1.000000 0.355957 0.0
vt 0.925781 0.768555 0.0
vt 0.487305 0.355469 0.0
vt 0.925781 0.768555 0.0
vt 0.507813 0.749023 0.0
vt 0.487305 0.355469 0.0
vt 0.487305 0.355469 0.0
vt 0.507813 0.749023 0.0
vt -0.014648 0.406738 0.0
vt 0.507813 0.749023 0.0
vt 0.096680 0.789063 0.0
vt -0.014648 0.406738 0.0
vt -0.011719 0.355469 0.0
vt -0.014648 0.406738 0.0
vt 0.099609 0.789063 0.0
vt 0.096680 0.789063 0.0
vt 0.099609 0.789063 0.0
vt -0.014648 0.406738 0.0
vt 1.000000 0.355957 0.0
vt 0.748047 0.074219 0.0
vt 0.857422 0.117676 0.0
vt 1.000000 0.355957 0.0
vt 0.473633 0.052246 0.0
vt 0.748047 0.074219 0.0
vt 1.000000 0.355957 0.0
vt 0.487305 0.355469 0.0
vt 0.473633 0.052246 0.0
vt 0.487305 0.355469 0.0
vt -0.014648 0.406738 0.0
vt 0.473633 0.052246 0.0
vt -0.014648 0.406738 0.0
vt 0.206055 0.084473 0.0
vt 0.473633 0.052246 0.0
vt -0.014648 0.406738 0.0
vt -0.011719 0.355469 0.0
vt 0.099609 0.132324 0.0
vt 0.748047 0.074219 0.0
vt 0.473633 0.052246 0.0
vt 0.472656 -0.048340 0.0
vt 0.473633 0.052246 0.0
vt 0.206055 0.084473 0.0
vt 0.472656 -0.048340 0.0
vt 0.099609 0.132324 0.0
vt -0.011719 0.355469 0.0
vt 0.259766 0.080078 0.0
vt -0.014648 0.406738 0.0
vt 0.099609 0.132324 0.0
vt 0.206055 0.084473 0.0

# normals:
vn -0.782075 0.091960 -0.616362
vn -0.062013 0.374747 -0.925051
vn -0.005744 -0.668988 -0.743251
vn -0.782075 0.091960 -0.616362
vn -0.005744 -0.668988 -0.743251
vn -0.791180 -0.578515 0.198380
vn 0.869734 -0.485901 0.086393
vn 0.062891 -0.984303 0.164899
vn -0.005744 -0.668988 -0.743251
vn -0.782075 0.091960 -0.616362
vn -0.067488 0.308760 -0.948743
vn -0.062013 0.374747 -0.925051
vn -0.736686 0.641896 0.212753
vn -0.751824 0.385507 -0.534925
vn -0.898376 0.371678 0.234042
vn -0.075352 0.245943 -0.966351
vn 0.635647 0.449897 -0.627332
vn -0.067488 0.308760 -0.948743
vn 0.684762 0.163458 -0.710198
vn 0.882496 0.469686 -0.024424
vn 0.869734 -0.485901 0.086393
vn -0.751824 0.385507 -0.534925
vn -0.064630 0.978286 -0.196925
vn -0.080968 0.794691 -0.601590
vn -0.064630 0.978286 -0.196925
vn -0.751824 0.385507 -0.534925
vn -0.736686 0.641896 0.212753
vn -0.782075 0.091960 -0.616362
vn -0.921825 0.373657 0.103044
vn -0.898376 0.371678 0.234042
vn -0.898376 0.371678 0.234042
vn -0.751824 0.385507 -0.534925
vn -0.782075 0.091960 -0.616362
vn 0.686062 0.717404 0.121037
vn 0.880359 0.460584 0.113269
vn 0.635647 0.449897 -0.627332
vn -0.067488 0.308760 -0.948743
vn 0.635647 0.449897 -0.627332
vn 0.684762 0.163458 -0.710198
vn -0.080968 0.794691 -0.601590
vn -0.064630 0.978286 -0.196925
vn 0.635647 0.449897 -0.627332
vn -0.062013 0.374747 -0.925051
vn -0.067488 0.308760 -0.948743
vn 0.684762 0.163458 -0.710198
vn 0.684762 0.163458 -0.710198
vn 0.880359 0.460584 0.113269
vn 0.882496 0.469686 -0.024424
vn -0.064630 0.978286 -0.196925
vn 0.686062 0.717404 0.121037
vn 0.635647 0.449897 -0.627332
vn 0.880359 0.460584 0.113269
vn 0.684762 0.163458 -0.710198
vn 0.635647 0.449897 -0.627332
vn -0.751824 0.385507 -0.534925
vn -0.067488 0.308760 -0.948743
vn -0.782075 0.091960 -0.616362
vn -0.080968 0.794691 -0.601590
vn 0.635647 0.449897 -0.627332
vn -0.075352 0.245943 -0.966351
vn -0.751824 0.385507 -0.534925
vn -0.080968 0.794691 -0.601590
vn -0.075352 0.245943 -0.966351
vn -0.791180 -0.578515 0.198380
vn -0.005744 -0.668988 -0.743251
vn 0.062891 -0.984303 0.164899
vn -0.075352 0.245943 -0.966351
vn -0.067488 0.308760 -0.948743
vn -0.751824 0.385507 -0.534925
vn 0.684762 0.163458 -0.710198
vn 0.869734 -0.485901 0.086393
vn -0.005744 -0.668988 -0.743251
vn -0.791180 -0.578515 0.198380
vn -0.921825 0.373657 0.103044
vn -0.782075 0.091960 -0.616362
vn 0.684762 0.163458 -0.710198
vn -0.005744 -0.668988 -0.743251
vn -0.062013 0.374747 -0.925051
vn 0.311448 -0.609402 -0.729129
vn 0.805154 -0.592290 -0.030326
vn 0.108840 -0.654384 0.748288
vn 0.108840 -0.654384 0.748288
vn -0.909860 -0.209456 -0.358165
vn 0.311448 -0.609402 -0.729129
vn -0.865474 -0.478427 -0.148533
vn -0.328624 -0.238473 -0.913858
vn -0.156602 -0.357123 0.920836
vn -0.328624 -0.238473 -0.913858
vn 0.892460 -0.302624 -0.334565
vn -0.156602 -0.357123 0.920836
vn 0.057696 0.083665 -0.994822
vn 0.652425 -0.684619 -0.325020
vn -0.201690 -0.285594 -0.936887
vn 0.754573 0.594362 -0.278125
vn -0.063055 -0.094055 0.993568
vn 0.652425 -0.684619 -0.325020
vn 0.057696 0.083665 -0.994822
vn 0.754573 0.594362 -0.278125
vn 0.652425 -0.684619 -0.325020
vn -0.639970 -0.725400 -0.253442
vn -0.189535 0.082216 -0.978426
vn 0.105405 -0.276277 -0.955280
vn -0.639970 -0.725400 -0.253442
vn 0.211098 -0.083945 0.973854
vn -0.827428 0.535349 -0.169600
vn -0.189535 0.082216 -0.978426
vn -0.639970 -0.725400 -0.253442
vn -0.827428 0.535349 -0.169600
vn -0.429966 -0.678425 -0.595709
vn 0.071501 -0.794122 0.603538
vn -0.881125 0.238189 0.408515
vn 0.340517 -0.768819 -0.541264
vn 0.071501 -0.794122 0.603538
vn 0.248146 -0.504459 -0.827009
vn -0.116220 0.364479 0.923931
vn 0.071501 -0.794122 0.603538
vn 0.340517 -0.768819 -0.541264
vn 0.071501 -0.794122 0.603538
vn -0.429966 -0.678425 -0.595709
vn 0.248146 -0.504459 -0.827009
vn 0.816685 0.260436 0.514975
vn -0.064441 -0.787807 0.612542
vn 0.453621 -0.737132 -0.500863
vn -0.348595 -0.112208 -0.930533
vn -0.064441 -0.787807 0.612542
vn -0.207722 -0.921762 -0.327423
vn -0.207722 -0.921762 -0.327423
vn -0.064441 -0.787807 0.612542
vn 0.209056 0.258484 0.943123
vn -0.348595 -0.112208 -0.930533
vn 0.453621 -0.737132 -0.500863
vn -0.064441 -0.787807 0.612542
vn -0.736686 0.641896 0.212753
vn 0.011346 0.678454 0.734556
vn -0.064630 0.978286 -0.196925
vn -0.898376 0.371678 0.234042
vn -0.921825 0.373657 0.103044
vn 0.038934 0.386067 0.921649
vn -0.791180 -0.578515 0.198380
vn 0.038934 0.386067 0.921649
vn -0.921825 0.373657 0.103044
vn -0.898376 0.371678 0.234042
vn 0.011346 0.678454 0.734556
vn -0.736686 0.641896 0.212753
vn 0.038934 0.386067 0.921649
vn 0.011346 0.678454 0.734556
vn -0.898376 0.371678 0.234042
vn 0.038934 0.386067 0.921649
vn -0.791180 -0.578515 0.198380
vn 0.082594 -0.533411 0.841814
vn 0.062891 -0.984303 0.164899
vn 0.082594 -0.533411 0.841814
vn -0.791180 -0.578515 0.198380
vn 0.686062 0.717404 0.121037
vn -0.064630 0.978286 -0.196925
vn 0.011346 0.678454 0.734556
vn 0.869734 -0.485901 0.086393
vn 0.882496 0.469686 -0.024424
vn 0.038934 0.386067 0.921649
vn 0.880359 0.460584 0.113269
vn 0.038934 0.386067 0.921649
vn 0.882496 0.469686 -0.024424
vn 0.038934 0.386067 0.921649
vn 0.880359 0.460584 0.113269
vn 0.011346 0.678454 0.734556
vn 0.880359 0.460584 0.113269
vn 0.686062 0.717404 0.121037
vn 0.011346 0.678454 0.734556
vn 0.869734 -0.485901 0.086393
vn 0.082594 -0.533411 0.841814
vn 0.062891 -0.984303 0.164899
vn 0.038934 0.386067 0.921649
vn 0.082594 -0.533411 0.841814
vn 0.869734 -0.485901 0.086393
vn -0.660268 0.503071 0.557643
vn 0.057696 0.083665 -0.994822
vn -0.201690 -0.285594 -0.936887
vn -0.063055 -0.094055 0.993568
vn 0.754573 0.594362 -0.278125
vn -0.660268 0.503071 0.557643
vn -0.660268 0.503071 0.557643
vn 0.652425 -0.684619 -0.325020
vn -0.063055 -0.094055 0.993568
vn 0.057696 0.083665 -0.994822
vn -0.660268 0.503071 0.557643
vn 0.754573 0.594362 -0.278125
vn 0.691528 0.541547 0.478033
vn 0.105405 -0.276277 -0.955280
vn -0.189535 0.082216 -0.978426
vn 0.691528 0.541547 0.478033
vn -0.827428 0.535349 -0.169600
vn 0.211098 -0.083945 0.973854
vn -0.189535 0.082216 -0.978426
vn -0.827428 0.535349 -0.169600
vn 0.691528 0.541547 0.478033
vn 0.211098 -0.083945 0.973854
vn -0.639970 -0.725400 -0.253442
vn 0.691528 0.541547 0.478033
vn 0.977400 -0.204010 0.055398
vn -0.000359 -0.998892 -0.047068
vn -0.186896 -0.531264 0.826334
vn -0.186896 -0.531264 0.826334
vn -0.871064 0.474615 -0.126447
vn -0.814567 0.286515 0.504371
vn -0.814567 0.286515 0.504371
vn -0.871064 0.474615 -0.126447
vn -0.388387 0.283106 -0.876930
vn -0.871064 0.474615 -0.126447
vn -0.274353 -0.482114 -0.832044
vn -0.388387 0.283106 -0.876930
vn -0.274353 -0.482114 -0.832044
vn -0.000359 -0.998892 -0.047068
vn 0.977400 -0.204010 0.055398
vn 0.977400 -0.204010 0.055398
vn 0.108840 -0.654384 0.748288
vn 0.805154 -0.592290 -0.030326
vn 0.977400 -0.204010 0.055398
vn -0.814567 0.286515 0.504371
vn 0.108840 -0.654384 0.748288
vn -0.814567 0.286515 0.504371
vn -0.388387 0.283106 -0.876930
vn -0.909860 -0.209456 -0.358165
vn -0.388387 0.283106 -0.876930
vn 0.311448 -0.609402 -0.729129
vn -0.909860 -0.209456 -0.358165
vn -0.274353 -0.482114 -0.832044
vn 0.977400 -0.204010 0.055398
vn -0.388387 0.283106 -0.876930
vn -0.814567 0.286515 0.504371
vn -0.909860 -0.209456 -0.358165
vn 0.108840 -0.654384 0.748288
vn -0.388387 0.283106 -0.876930
vn 0.977400 -0.204010 0.055398
vn 0.311448 -0.609402 -0.729129
vn 0.977400 -0.204010 0.055398
vn -0.186896 -0.531264 0.826334
vn -0.814567 0.286515 0.504371
vn 0.977400 -0.204010 0.055398
vn 0.805154 -0.592290 -0.030326
vn 0.311448 -0.609402 -0.729129
vn 0.204650 -0.518766 0.830060
vn -0.000359 -0.998892 -0.047068
vn -0.998767 -0.046318 0.017865
vn 0.833600 0.172449 0.524759
vn 0.989062 -0.144509 -0.029564
vn 0.204650 -0.518766 0.830060
vn 0.444316 0.236957 -0.863965
vn 0.989062 -0.144509 -0.029564
vn 0.833600 0.172449 0.524759
vn 0.444316 0.236957 -0.863965
vn 0.340474 -0.438706 -0.831634
vn 0.989062 -0.144509 -0.029564
vn -0.998767 -0.046318 0.017865
vn -0.000359 -0.998892 -0.047068
vn 0.340474 -0.438706 -0.831634
vn -0.865474 -0.478427 -0.148533
vn -0.156602 -0.357123 0.920836
vn -0.998767 -0.046318 0.017865
vn -0.998767 -0.046318 0.017865
vn -0.156602 -0.357123 0.920836
vn 0.833600 0.172449 0.524759
vn 0.833600 0.172449 0.524759
vn 0.892460 -0.302624 -0.334565
vn 0.444316 0.236957 -0.863965
vn 0.892460 -0.302624 -0.334565
vn -0.328624 -0.238473 -0.913858
vn 0.444316 0.236957 -0.863965
vn 0.444316 0.236957 -0.863965
vn -0.998767 -0.046318 0.017865
vn 0.340474 -0.438706 -0.831634
vn -0.156602 -0.357123 0.920836
vn 0.892460 -0.302624 -0.334565
vn 0.833600 0.172449 0.524759
vn 0.444316 0.236957 -0.863965
vn -0.328624 -0.238473 -0.913858
vn -0.998767 -0.046318 0.017865
vn 0.204650 -0.518766 0.830060
vn -0.998767 -0.046318 0.017865
vn 0.833600 0.172449 0.524759
vn -0.328624 -0.238473 -0.913858
vn -0.865474 -0.478427 -0.148533
vn -0.998767 -0.046318 0.017865
vn -0.040627 0.998848 0.025530
vn -0.118801 0.508380 0.852898
vn 0.627637 0.516868 0.582169
vn -0.040627 0.998848 0.025530
vn 0.627637 0.516868 0.582169
vn 0.668800 0.638379 -0.381023
vn -0.118801 0.508380 0.852898
vn -0.040627 0.998848 0.025530
vn -0.729359 0.475641 0.491733
vn 0.808108 -0.229281 0.542580
vn 0.627637 0.516868 0.582169
vn -0.033452 -0.079348 0.996286
vn 0.627637 0.516868 0.582169
vn -0.118801 0.508380 0.852898
vn -0.033452 -0.079348 0.996286
vn -0.118801 0.508380 0.852898
vn -0.729359 0.475641 0.491733
vn -0.033452 -0.079348 0.996286
vn -0.729359 0.475641 0.491733
vn -0.789024 -0.286603 0.543415
vn -0.033452 -0.079348 0.996286
vn 0.808108 -0.229281 0.542580
vn -0.033452 -0.079348 0.996286
vn 0.204650 -0.518766 0.830060
vn 0.204650 -0.518766 0.830060
vn -0.186896 -0.531264 0.826334
vn -0.000359 -0.998892 -0.047068
vn -0.789024 -0.286603 0.543415
vn -0.186896 -0.531264 0.826334
vn -0.033452 -0.079348 0.996286
vn 0.204650 -0.518766 0.830060
vn -0.033452 -0.079348 0.996286
vn -0.186896 -0.531264 0.826334
vn -0.789024 -0.286603 0.543415
vn -0.848795 -0.235304 -0.473475
vn -0.803696 -0.594605 0.022763
vn -0.803696 -0.594605 0.022763
vn -0.186896 -0.531264 0.826334
vn -0.789024 -0.286603 0.543415
vn -0.789024 -0.286603 0.543415
vn -0.729359 0.475641 0.491733
vn -0.848795 -0.235304 -0.473475
vn -0.429966 -0.678425 -0.595709
vn -0.228164 0.966555 -0.117105
vn 0.248146 -0.504459 -0.827009
vn 0.124735 -0.633629 0.763515
vn -0.074588 0.997206 0.004098
vn -0.116220 0.364479 0.923931
vn -0.116220 0.364479 0.923931
vn -0.074588 0.997206 0.004098
vn 0.014837 0.948897 -0.315237
vn 0.071501 -0.794122 0.603538
vn -0.116220 0.364479 0.923931
vn -0.228164 0.966555 -0.117105
vn 0.071501 -0.794122 0.603538
vn -0.228164 0.966555 -0.117105
vn -0.881125 0.238189 0.408515
vn -0.429966 -0.678425 -0.595709
vn -0.881125 0.238189 0.408515
vn -0.228164 0.966555 -0.117105
vn -0.228164 0.966555 -0.117105
vn -0.116220 0.364479 0.923931
vn 0.014837 0.948897 -0.315237
vn -0.228164 0.966555 -0.117105
vn 0.014837 0.948897 -0.315237
vn 0.340517 -0.768819 -0.541264
vn -0.228164 0.966555 -0.117105
vn 0.340517 -0.768819 -0.541264
vn 0.248146 -0.504459 -0.827009
vn 0.340517 -0.768819 -0.541264
vn 0.014837 0.948897 -0.315237
vn 0.263463 -0.485590 -0.833540
vn 0.014837 0.948897 -0.315237
vn -0.074588 0.997206 0.004098
vn 0.263463 -0.485590 -0.833540
vn 0.340517 -0.768819 -0.541264
vn 0.263463 -0.485590 -0.833540
vn 0.124735 -0.633629 0.763515
vn 0.124735 -0.633629 0.763515
vn 0.263463 -0.485590 -0.833540
vn 0.686495 -0.064947 0.724228
vn 0.263463 -0.485590 -0.833540
vn 0.225832 -0.433385 -0.872455
vn 0.686495 -0.064947 0.724228
vn 0.124735 -0.633629 0.763515
vn 0.686495 -0.064947 0.724228
vn -0.074588 0.997206 0.004098
vn 0.686495 -0.064947 0.724228
vn 0.344459 0.697201 -0.628696
vn -0.074588 0.997206 0.004098
vn 0.344459 0.697201 -0.628696
vn 0.225832 -0.433385 -0.872455
vn -0.074588 0.997206 0.004098
vn -0.074588 0.997206 0.004098
vn 0.225832 -0.433385 -0.872455
vn 0.263463 -0.485590 -0.833540
vn 0.955183 -0.009853 -0.295852
vn 0.686495 -0.064947 0.724228
vn 0.225832 -0.433385 -0.872455
vn 0.955183 -0.009853 -0.295852
vn 0.344459 0.697201 -0.628696
vn 0.686495 -0.064947 0.724228
vn 0.340517 -0.768819 -0.541264
vn 0.124735 -0.633629 0.763515
vn -0.116220 0.364479 0.923931
vn 0.344459 0.697201 -0.628696
vn 0.955183 -0.009853 -0.295852
vn 0.225832 -0.433385 -0.872455
vn -0.348595 -0.112208 -0.930533
vn 0.350384 0.933979 0.070103
vn 0.453621 -0.737132 -0.500863
vn 0.209056 0.258484 0.943123
vn 0.025647 0.962185 0.271186
vn -0.034051 -0.767660 0.639953
vn -0.139007 0.938344 -0.316524
vn 0.025647 0.962185 0.271186
vn 0.209056 0.258484 0.943123
vn 0.350384 0.933979 0.070103
vn 0.209056 0.258484 0.943123
vn -0.064441 -0.787807 0.612542
vn 0.816685 0.260436 0.514975
vn 0.350384 0.933979 0.070103
vn -0.064441 -0.787807 0.612542
vn 0.350384 0.933979 0.070103
vn 0.816685 0.260436 0.514975
vn 0.453621 -0.737132 -0.500863
vn -0.139007 0.938344 -0.316524
vn 0.209056 0.258484 0.943123
vn 0.350384 0.933979 0.070103
vn -0.348595 -0.112208 -0.930533
vn -0.207722 -0.921762 -0.327423
vn -0.139007 0.938344 -0.316524
vn -0.348595 -0.112208 -0.930533
vn -0.139007 0.938344 -0.316524
vn 0.350384 0.933979 0.070103
vn -0.195816 -0.315873 -0.928375
vn -0.139007 0.938344 -0.316524
vn -0.207722 -0.921762 -0.327423
vn -0.195816 -0.315873 -0.928375
vn 0.025647 0.962185 0.271186
vn -0.139007 0.938344 -0.316524
vn -0.034051 -0.767660 0.639953
vn -0.195816 -0.315873 -0.928375
vn -0.207722 -0.921762 -0.327423
vn -0.528195 -0.456165 0.716187
vn -0.195816 -0.315873 -0.928375
vn -0.034051 -0.767660 0.639953
vn -0.528195 -0.456165 0.716187
vn -0.331882 -0.010094 -0.943267
vn -0.195816 -0.315873 -0.928375
vn 0.025647 0.962185 0.271186
vn -0.528195 -0.456165 0.716187
vn -0.034051 -0.767660 0.639953
vn 0.025647 0.962185 0.271186
vn -0.483756 0.870726 -0.088414
vn -0.528195 -0.456165 0.716187
vn 0.025647 0.962185 0.271186
vn -0.331882 -0.010094 -0.943267
vn -0.483756 0.870726 -0.088414
vn -0.195816 -0.315873 -0.928375
vn -0.331882 -0.010094 -0.943267
vn 0.025647 0.962185 0.271186
vn -0.331882 -0.010094 -0.943267
vn -0.528195 -0.456165 0.716187
vn -0.992817 0.056758 -0.105327
vn -0.528195 -0.456165 0.716187
vn -0.483756 0.870726 -0.088414
vn -0.992817 0.056758 -0.105327
vn 0.209056 0.258484 0.943123
vn -0.034051 -0.767660 0.639953
vn -0.207722 -0.921762 -0.327423
vn -0.331882 -0.010094 -0.943267
vn -0.992817 0.056758 -0.105327
vn -0.483756 0.870726 -0.088414
vn -0.040627 0.998848 0.025530
vn 0.138064 0.490961 -0.860172
vn -0.597207 0.510967 -0.618269
vn -0.040627 0.998848 0.025530
vn -0.597207 0.510967 -0.618269
vn -0.729359 0.475641 0.491733
vn -0.040627 0.998848 0.025530
vn 0.668800 0.638379 -0.381023
vn 0.138064 0.490961 -0.860172
vn -0.729359 0.475641 0.491733
vn -0.597207 0.510967 -0.618269
vn -0.848795 -0.235304 -0.473475
vn -0.848795 -0.235304 -0.473475
vn -0.597207 0.510967 -0.618269
vn -0.072309 -0.027065 -0.997015
vn -0.597207 0.510967 -0.618269
vn 0.138064 0.490961 -0.860172
vn -0.072309 -0.027065 -0.997015
vn -0.072309 -0.027065 -0.997015
vn 0.138064 0.490961 -0.860172
vn 0.846379 -0.104951 -0.522139
vn 0.138064 0.490961 -0.860172
vn 0.668800 0.638379 -0.381023
vn 0.846379 -0.104951 -0.522139
vn 0.808108 -0.229281 0.542580
vn 0.846379 -0.104951 -0.522139
vn 0.627637 0.516868 0.582169
vn 0.668800 0.638379 -0.381023
vn 0.627637 0.516868 0.582169
vn 0.846379 -0.104951 -0.522139
vn -0.848795 -0.235304 -0.473475
vn -0.274353 -0.482114 -0.832044
vn -0.803696 -0.594605 0.022763
vn -0.848795 -0.235304 -0.473475
vn 0.019305 -0.669704 -0.742377
vn -0.274353 -0.482114 -0.832044
vn -0.848795 -0.235304 -0.473475
vn -0.072309 -0.027065 -0.997015
vn 0.019305 -0.669704 -0.742377
vn -0.072309 -0.027065 -0.997015
vn 0.846379 -0.104951 -0.522139
vn 0.019305 -0.669704 -0.742377
vn 0.846379 -0.104951 -0.522139
vn 0.340474 -0.438706 -0.831634
vn 0.019305 -0.669704 -0.742377
vn 0.846379 -0.104951 -0.522139
vn 0.808108 -0.229281 0.542580
vn 0.989062 -0.144509 -0.029564
vn -0.274353 -0.482114 -0.832044
vn 0.019305 -0.669704 -0.742377
vn -0.000359 -0.998892 -0.047068
vn 0.019305 -0.669704 -0.742377
vn 0.340474 -0.438706 -0.831634
vn -0.000359 -0.998892 -0.047068
vn 0.989062 -0.144509 -0.029564
vn 0.808108 -0.229281 0.542580
vn 0.204650 -0.518766 0.830060
vn 0.846379 -0.104951 -0.522139
vn 0.989062 -0.144509 -0.029564
vn 0.340474 -0.438706 -0.831634

# triangles:
g material_43
usemtl material_43
s 0
f 3/1/1 2/2/2 1/3/3
f 3/4/4 1/5/5 4/6/6
f 6/7/7 5/8/8 1/9/9
f 3/10/10 7/11/11 2/12/12
f 10/13/13 9/14/14 8/15/15
f 12/16/16 11/17/17 7/18/18
f 14/19/19 13/20/20 6/21/21
f 9/22/22 16/23/23 15/24/24
f 16/25/25 9/26/26 10/27/27
f 3/28/28 17/29/29 8/30/30
f 8/31/31 9/32/32 3/33/33
f 19/34/34 18/35/35 11/36/36
f 7/37/37 11/38/38 14/39/39
f 15/40/40 16/41/41 11/42/42
f 2/43/43 7/44/44 14/45/45
f 14/46/46 18/47/47 13/48/48
f 16/49/49 19/50/50 11/51/51
f 18/52/52 14/53/53 11/54/54
f 9/55/55 7/56/56 3/57/57
f 15/58/58 11/59/59 12/60/60
f 9/61/61 15/62/62 12/63/63
f 4/64/64 1/65/65 5/66/66
f 12/67/67 7/68/68 9/69/69
f 14/70/70 6/71/71 1/72/72
f 4/73/73 17/74/74 3/75/75
f 14/76/76 1/77/77 2/78/78
f 25/79/79 24/80/80 23/81/81
f 23/82/82 26/83/83 25/84/84
f 36/85/85 35/86/86 34/87/87
f 35/88/88 37/89/89 34/90/90
f 46/91/91 45/92/92 44/93/93
f 48/94/94 47/95/95 45/96/96
f 46/97/97 48/98/98 45/99/99
f 52/100/100 51/101/101 50/102/102
f 52/103/103 54/104/104 53/105/105
f 51/106/106 52/107/107 53/108/108
f 73/109/109 72/110/110 71/111/111
f 75/112/112 72/113/113 74/114/114
f 76/115/115 72/116/116 75/117/117
f 72/118/118 73/119/119 74/120/120
f 88/121/121 87/122/122 86/123/123
f 90/124/124 87/125/125 89/126/126
f 89/127/127 87/128/128 91/129/129
f 90/130/130 86/131/131 87/132/132
g material_44
usemtl material_44
f 10/133/133 20/134/134 16/135/135
f 8/136/136 17/137/137 21/138/138
f 4/139/139 21/140/140 17/141/141
f 8/142/142 20/143/143 10/144/144
f 21/145/145 20/146/146 8/147/147
f 21/148/148 4/149/149 22/150/150
f 5/151/151 22/152/152 4/153/153
f 19/154/154 16/155/155 20/156/156
f 6/157/157 13/158/158 21/159/159
f 18/160/160 21/161/161 13/162/162
f 21/163/163 18/164/164 20/165/165
f 18/166/166 19/167/167 20/168/168
f 6/169/169 22/170/170 5/171/171
f 21/172/172 22/173/173 6/174/174
f 49/175/175 46/176/176 44/177/177
f 47/178/178 48/179/179 49/180/180
f 49/181/181 45/182/182 47/183/183
f 46/184/184 49/185/185 48/186/186
f 55/187/187 50/188/188 51/189/189
f 55/190/190 53/191/191 54/192/192
f 51/193/193 53/194/194 55/195/195
f 54/196/196 52/197/197 55/198/198
g material_45
usemtl material_45
f 29/199/199 28/200/200 27/201/201
f 27/202/202 31/203/203 30/204/204
f 30/205/205 31/206/206 32/207/207
f 31/208/208 33/209/209 32/210/210
f 33/211/211 28/212/212 29/213/213
f 29/214/214 23/215/215 24/216/216
f 29/217/217 30/218/218 23/219/219
f 30/220/220 32/221/221 26/222/222
f 32/223/223 25/224/224 26/225/225
f 33/226/226 29/227/227 32/228/228
f 30/229/229 26/230/230 23/231/231
f 32/232/232 29/233/233 25/234/234
f 29/235/235 27/236/236 30/237/237
f 29/238/238 24/239/239 25/240/240
f 39/241/241 28/242/242 38/243/243
f 41/244/244 40/245/245 39/246/246
f 42/247/247 40/248/248 41/249/249
f 42/250/250 43/251/251 40/252/252
f 38/253/253 28/254/254 43/255/255
f 36/256/256 34/257/257 38/258/258
f 38/259/259 34/260/260 41/261/261
f 41/262/262 37/263/263 42/264/264
f 37/265/265 35/266/266 42/267/267
f 42/268/268 38/269/269 43/270/270
f 34/271/271 37/272/272 41/273/273
f 42/274/274 35/275/275 38/276/276
f 39/277/277 38/278/278 41/279/279
f 35/280/280 36/281/281 38/282/282
f 58/283/283 68/284/284 64/285/285
f 58/286/286 64/287/287 60/288/288
f 68/289/289 58/290/290 59/291/291
f 65/292/292 64/293/293 69/294/294
f 64/295/295 68/296/296 69/297/297
f 68/298/298 59/299/299 69/300/300
f 59/301/301 70/302/302 69/303/303
f 65/304/304 69/305/305 39/306/306
f 39/307/307 27/308/308 28/309/309
f 70/310/310 27/311/311 69/312/312
f 39/313/313 69/314/314 27/315/315
f 70/316/316 61/317/317 66/318/318
f 66/319/319 27/320/320 70/321/321
f 70/322/322 59/323/323 61/324/324
f 73/325/325 77/326/326 74/327/327
f 79/328/328 78/329/329 76/330/330
f 76/331/331 78/332/332 80/333/333
f 72/334/334 76/335/335 77/336/336
f 72/337/337 77/338/338 71/339/339
f 73/340/340 71/341/341 77/342/342
f 77/343/343 76/344/344 80/345/345
f 77/346/346 80/347/347 75/348/348
f 77/349/349 75/350/350 74/351/351
f 75/352/352 80/353/353 81/354/354
f 80/355/355 78/356/356 81/357/357
f 75/358/358 81/359/359 79/360/360
f 79/361/361 81/362/362 82/363/363
f 81/364/364 83/365/365 82/366/366
f 79/367/367 82/368/368 78/369/369
f 82/370/370 84/371/371 78/372/372
f 84/373/373 83/374/374 78/375/375
f 78/376/376 83/377/377 81/378/378
f 85/379/379 82/380/380 83/381/381
f 85/382/382 84/383/383 82/384/384
f 75/385/385 79/386/386 76/387/387
f 84/388/388 85/389/389 83/390/390
f 90/391/391 92/392/392 86/393/393
f 91/394/394 94/395/395 93/396/396
f 95/397/397 94/398/398 91/399/399
f 92/400/400 91/401/401 87/402/402
f 88/403/403 92/404/404 87/405/405
f 92/406/406 88/407/407 86/408/408
f 95/409/409 91/410/410 92/411/411
f 90/412/412 89/413/413 95/414/414
f 90/415/415 95/416/416 92/417/417
f 96/418/418 95/419/419 89/420/420
f 96/421/421 94/422/422 95/423/423
f 93/424/424 96/425/425 89/426/426
f 97/427/427 96/428/428 93/429/429
f 97/430/430 98/431/431 96/432/432
f 94/433/433 97/434/434 93/435/435
f 94/436/436 99/437/437 97/438/438
f 94/439/439 98/440/440 99/441/441
f 96/442/442 98/443/443 94/444/444
f 98/445/445 97/446/446 100/447/447
f 97/448/448 99/449/449 100/450/450
f 91/451/451 93/452/452 89/453/453
f 98/454/454 100/455/455 99/456/456
g material_46
usemtl Material47
f 58/457/457 57/458/458 56/459/459
f 58/460/460 56/461/461 59/462/462
f 58/463/463 60/464/464 57/465/465
f 59/466/466 56/467/467 61/468/468
f 61/469/469 56/470/470 62/471/471
f 56/472/472 57/473/473 62/474/474
f 62/475/475 57/476/476 63/477/477
f 57/478/478 60/479/479 63/480/480
f 65/481/481 63/482/482 64/483/483
f 60/484/484 64/485/485 63/486/486
f 61/487/487 33/488/488 66/489/489
f 61/490/490 67/491/491 33/492/492
f 61/493/493 62/494/494 67/495/495
f 62/496/496 63/497/497 67/498/498
f 63/499/499 43/500/500 67/501/501
f 63/502/502 65/503/503 40/504/504
f 33/505/505 67/506/506 28/507/507
f 67/508/508 43/509/509 28/510/510
f 40/511/511 65/512/512 39/513/513
f 63/514/514 40/515/515 43/516/516

g